<svg width="128" height="128" viewBox="0 0 128 128" fill="none" xmlns="http://www.w3.org/2000/svg">
<g filter="url(#filter0_d_3001_438)">
<path d="M83.8822 10H44.1178L16 38.1178V77.8822L44.1178 106H83.8822L112 77.8822V38.1178L83.8822 10Z" fill="white"/>
</g>
<path d="M82.5701 13.168H45.4298L19.168 39.4299V76.5702L45.43 102.832H82.5703L108.832 76.57V39.4297L95.701 26.2988L82.5701 13.168Z" fill="url(#paint0_linear_3001_438)"/>
<path d="M76.6054 27.5681H51.3946L33.568 45.3947V70.6055L51.3946 88.4321H76.6054L94.432 70.6055V45.3947L76.6054 27.5681Z" fill="white"/>
<path d="M39.712 67.3068H88.288V68.2668H39.712V67.3068ZM63.0227 73.2425H62.0583V71.8134H63.0227V73.2425ZM64.8004 71.8134H63.8358V73.2425H64.8004V71.8134ZM50.368 78.5309C50.4252 80.5319 51.9257 81.904 54.4123 81.904C56.613 81.904 58.1136 80.6606 58.1136 78.8598C58.128 76.8874 56.5129 76.3586 54.8554 76.0585C53.2833 75.7869 52.2544 75.5726 52.2544 74.5437C52.2544 73.6004 53.0402 73.1142 54.1694 73.1142C55.3842 73.1142 56.1844 73.8004 56.3129 74.8151H57.9564C57.885 72.9714 56.4559 71.728 54.1694 71.728C52.0399 71.728 50.6109 72.9142 50.6109 74.6579C50.6109 76.6445 52.1828 77.1731 53.8407 77.4592C55.427 77.7449 56.4701 77.9737 56.4701 79.0313C56.4701 79.9888 55.6128 80.5175 54.4267 80.5175C53.026 80.5175 52.1115 79.7315 52.0257 78.5595L50.368 78.5309ZM59.4849 77.5306C59.4849 80.3747 60.8283 81.904 63.415 81.904C66.0158 81.904 67.3736 80.3747 67.3736 77.5306V71.8134H65.7301V77.6162C65.7301 79.4742 65.0157 80.4461 63.415 80.4461C61.843 80.4461 61.1284 79.4742 61.1284 77.6162V71.8132H59.4849V77.5306ZM72.5302 81.8182C75.6598 81.8182 77.632 79.7745 77.632 76.8018C77.632 73.829 75.6598 71.8134 72.5302 71.8134H69.1289V81.8182H72.5302ZM70.7722 73.243H72.5302C74.7309 73.243 75.9458 74.6579 75.9458 76.8018C75.9458 78.9456 74.7309 80.3889 72.5302 80.3889H70.7722V73.243ZM88.288 44.272L81.6897 63.76H76.7161L71.0961 47.2299V55.3942C71.0961 60.923 68.3578 63.952 63.1068 63.952C57.883 63.952 55.1325 60.923 55.1325 55.3942V47.895H49.4921V63.76H45.3245V47.895H39.712V44.272H59.3002V55.6161C59.3002 58.7004 60.4397 60.3673 63.1068 60.3673C65.8019 60.3673 66.9276 58.7004 66.9276 55.6161V44.272H74.5089L79.1891 58.7031L83.9808 44.272H88.288ZM60.5824 47.895H62.4999V44.272H60.5824V47.895ZM63.7283 47.895H65.6458V44.272H63.7283V47.895Z" fill="#0B253B"/>
<defs>
<filter id="filter0_d_3001_438" x="0" y="0" width="128" height="128" filterUnits="userSpaceOnUse" color-interpolation-filters="sRGB">
<feFlood flood-opacity="0" result="BackgroundImageFix"/>
<feColorMatrix in="SourceAlpha" type="matrix" values="0 0 0 0 0 0 0 0 0 0 0 0 0 0 0 0 0 0 127 0" result="hardAlpha"/>
<feOffset dy="6"/>
<feGaussianBlur stdDeviation="8"/>
<feComposite in2="hardAlpha" operator="out"/>
<feColorMatrix type="matrix" values="0 0 0 0 0 0 0 0 0 0 0 0 0 0 0 0 0 0 0.1 0"/>
<feBlend mode="normal" in2="BackgroundImageFix" result="effect1_dropShadow_3001_438"/>
<feBlend mode="normal" in="SourceGraphic" in2="effect1_dropShadow_3001_438" result="shape"/>
</filter>
<linearGradient id="paint0_linear_3001_438" x1="64" y1="13.168" x2="64" y2="102.832" gradientUnits="userSpaceOnUse">
<stop offset="0.07" stop-color="#0046AD"/>
<stop offset="0.41" stop-color="#00A0E1"/>
<stop offset="0.88" stop-color="#0046AD"/>
</linearGradient>
</defs>
</svg>
