<svg width="394" height="394" viewBox="0 0 394 394" fill="none" xmlns="http://www.w3.org/2000/svg">
<path d="M278.244 0.858887H115.755L0.859985 115.755V278.244L115.756 393.139H278.245L393.14 278.243V115.754L278.244 0.858887Z" fill="url(#paint0_linear_37_126)"/>
<path d="M252.149 63.8608H141.852L63.8601 141.852V252.149L141.852 330.141H252.149L330.14 252.149V141.852L252.149 63.8608Z" fill="white"/>
<path d="M90.7399 237.716H303.26V241.916H90.7399V237.716ZM192.724 263.685H188.505V257.433H192.724V263.685ZM200.502 257.433H196.282V263.685H200.502V257.433ZM137.36 286.822C137.61 295.576 144.175 301.579 155.054 301.579C164.682 301.579 171.247 296.139 171.247 288.261C171.31 279.631 164.244 277.318 156.992 276.005C150.114 274.817 145.613 273.879 145.613 269.378C145.613 265.251 149.051 263.124 153.991 263.124C159.306 263.124 162.807 266.126 163.369 270.565H170.559C170.247 262.499 163.995 257.059 153.991 257.059C144.675 257.059 138.422 262.248 138.422 269.877C138.422 278.569 145.3 280.881 152.553 282.133C159.493 283.383 164.057 284.384 164.057 289.011C164.057 293.2 160.306 295.513 155.117 295.513C148.989 295.513 144.988 292.074 144.612 286.947L137.36 286.822ZM177.246 282.445C177.246 294.888 183.124 301.579 194.44 301.579C205.819 301.579 211.76 294.888 211.76 282.445V257.433H204.569V282.82C204.569 290.949 201.443 295.201 194.44 295.201C187.563 295.201 184.437 290.949 184.437 282.82V257.432H177.246V282.445ZM234.319 301.203C248.011 301.203 256.64 292.263 256.64 279.257C256.64 266.251 248.011 257.433 234.319 257.433H219.439V301.203H234.319ZM226.628 263.687H234.319C243.947 263.687 249.263 269.877 249.263 279.257C249.263 288.636 243.947 294.951 234.319 294.951H226.628V263.687ZM303.26 136.939L274.392 222.199H252.633L228.045 149.88V185.598C228.045 209.787 216.065 223.039 193.092 223.039C170.238 223.039 158.204 209.787 158.204 185.598V152.79H133.528V222.199H115.295V152.79H90.7399V136.939H176.438V186.57C176.438 200.063 181.424 207.356 193.092 207.356C204.883 207.356 209.808 200.063 209.808 186.57V136.939H242.976L263.452 200.075L284.416 136.939H303.26ZM182.048 152.79H190.437V136.939H182.048V152.79ZM195.811 152.79H204.2V136.939H195.811V152.79Z" fill="#0B253B"/>
<defs>
<linearGradient id="paint0_linear_37_126" x1="197" y1="0.858887" x2="197" y2="393.139" gradientUnits="userSpaceOnUse">
<stop offset="0.07" stop-color="#0046AD"/>
<stop offset="0.41" stop-color="#00A0E1"/>
<stop offset="0.88" stop-color="#0046AD"/>
</linearGradient>
</defs>
</svg>
