<svg width="91" height="84" viewBox="0 0 91 84" fill="none" xmlns="http://www.w3.org/2000/svg">
<path d="M57.3697 5.29741e-07H33.1235C29.4364 -0.000827518 25.8141 0.969111 22.6208 2.81229C19.4275 4.65546 16.7758 7.3069 14.9322 10.5L2.81347 31.5C0.970332 34.6924 0 38.3137 0 42C0 45.6863 0.970332 49.3076 2.81347 52.5L14.9322 73.5C16.7758 76.6931 19.4275 79.3445 22.6208 81.1877C25.8141 83.0309 29.4364 84.0008 33.1235 84H57.3697C61.0553 83.9993 64.6758 83.0286 67.8674 81.1855C71.0591 79.3424 73.7094 76.6918 75.5522 73.5L87.6797 52.5C89.5229 49.3076 90.4932 45.6863 90.4932 42C90.4932 38.3137 89.5229 34.6924 87.6797 31.5L75.5522 10.5C73.7094 7.30819 71.0591 4.65757 67.8674 2.81448C64.6758 0.971376 61.0553 0.000708461 57.3697 5.29741e-07Z" fill="#ED8700"/>
<path d="M45.1198 10.5526H43.7461C43.6256 10.5657 43.5038 10.5512 43.3899 10.5101C43.2759 10.4691 43.1728 10.4026 43.0884 10.3157C43.004 10.2287 42.9406 10.1237 42.9029 10.0086C42.8653 9.89348 42.8544 9.77128 42.8711 9.6513C42.8716 9.54083 42.8954 9.43171 42.9409 9.33103C42.9863 9.23035 43.0525 9.14036 43.135 9.06692C43.2175 8.99347 43.3146 8.93821 43.4199 8.90472C43.5251 8.87124 43.6363 8.86028 43.7461 8.87255L48.4711 9.0038C48.5849 8.98939 48.7005 9.0003 48.8096 9.03577C48.9187 9.07123 49.0187 9.13037 49.1023 9.20896C49.1859 9.28755 49.2511 9.38364 49.2932 9.49036C49.3354 9.59708 49.3534 9.7118 49.3461 9.8263C49.3455 9.93677 49.3217 10.0459 49.2763 10.1466C49.2308 10.2473 49.1646 10.3372 49.0821 10.4107C48.9996 10.4841 48.9025 10.5394 48.7973 10.5729C48.692 10.6064 48.5809 10.6173 48.4711 10.6051L47.0973 10.5613L46.9486 15.8551C46.9451 15.9849 46.9161 16.1128 46.8633 16.2314C46.8104 16.3501 46.7347 16.4571 46.6404 16.5465C46.5462 16.6359 46.4352 16.7058 46.3139 16.7523C46.1927 16.7988 46.0634 16.821 45.9336 16.8176C45.8037 16.8141 45.6758 16.7851 45.5572 16.7322C45.4385 16.6794 45.3315 16.6036 45.2421 16.5094C45.1527 16.4151 45.0828 16.3042 45.0363 16.1829C44.9898 16.0617 44.9676 15.9324 44.9711 15.8026L45.1198 10.5526Z" fill="white"/>
<path d="M38.1112 14.4725H38.9337C39.8787 14.4725 40.2462 14.5775 40.3424 14.9975C40.4387 15.4175 40.0362 15.9163 39.2837 16.0913C39.0204 16.1815 38.7374 16.1973 38.4657 16.1371C38.194 16.0769 37.9442 15.943 37.7437 15.75C37.6293 15.6009 37.4745 15.4878 37.2976 15.4242C37.1207 15.3606 36.9293 15.3491 36.7462 15.3913C36.6352 15.4108 36.5295 15.4529 36.4355 15.515C36.3415 15.577 36.2613 15.6577 36.1997 15.752C36.1382 15.8464 36.0967 15.9524 36.0778 16.0634C36.0589 16.1744 36.063 16.2882 36.0899 16.3975C36.1285 16.5645 36.1999 16.7221 36.2999 16.8613C36.7987 17.57 37.9362 17.9638 39.5899 17.5788C41.5937 17.1238 42.5649 15.8725 42.2149 14.35C41.9962 13.125 41.0599 12.6613 39.3712 12.7225H38.5574C37.6824 12.7225 37.2974 12.6088 37.2099 12.2063C37.1224 11.8038 37.4462 11.3313 38.1462 11.1913C38.3878 11.1086 38.6487 11.1003 38.8951 11.1674C39.1416 11.2344 39.3622 11.3738 39.5287 11.5675C39.6521 11.7138 39.8156 11.8208 39.9991 11.8752C40.1826 11.9296 40.378 11.9291 40.5612 11.8738C40.6666 11.8584 40.7676 11.8213 40.858 11.7649C40.9483 11.7084 41.0259 11.6338 41.086 11.5458C41.146 11.4578 41.1871 11.3583 41.2067 11.2536C41.2264 11.1489 41.224 11.0413 41.1999 10.9375C41.164 10.7932 41.1017 10.6567 41.0162 10.535C40.4299 9.66004 39.2662 9.34504 37.7787 9.66004C36.0287 10.0625 34.9787 11.2963 35.3112 12.7663C35.5737 14 36.5362 14.5425 38.1112 14.4725Z" fill="white"/>
<path d="M33.876 18.9315C33.7819 18.829 33.7104 18.708 33.6659 18.5761L31.2159 13.1161C31.1567 12.9958 31.1223 12.8648 31.1149 12.7309C31.1074 12.597 31.1271 12.463 31.1726 12.3369C31.2182 12.2107 31.2887 12.0951 31.3799 11.9968C31.4711 11.8986 31.5813 11.8197 31.7037 11.765C31.8261 11.7102 31.9583 11.6808 32.0924 11.6783C32.2265 11.6758 32.3596 11.7004 32.484 11.7505C32.6084 11.8007 32.7213 11.8754 32.8162 11.9702C32.911 12.0651 32.9857 12.178 33.0359 12.3024L35.4771 17.7624C35.5462 17.8832 35.5891 18.0171 35.6033 18.1555C35.6175 18.2939 35.6026 18.4337 35.5595 18.566C35.5165 18.6983 35.4462 18.8201 35.3533 18.9236C35.2603 19.0272 35.1467 19.1101 35.0198 19.1671C34.8929 19.2241 34.7555 19.254 34.6164 19.2547C34.4772 19.2555 34.3395 19.2271 34.212 19.1714C34.0845 19.1158 33.97 19.0341 33.876 18.9315Z" fill="white"/>
<path fill-rule="evenodd" clip-rule="evenodd" d="M30.3496 21.875C32.2484 20.4662 32.5284 18.375 31.0496 16.3362C29.5709 14.2975 27.4446 13.9737 25.5459 15.3737C23.6471 16.7737 23.3671 18.9175 24.8459 20.9212C26.3246 22.925 28.4421 23.2662 30.3496 21.875ZM26.4996 16.625C27.3746 15.96 28.5384 16.2925 29.4221 17.5C30.3059 18.7075 30.2971 19.8887 29.4221 20.545C28.5471 21.2012 27.3921 20.8775 26.5084 19.67C25.6246 18.4625 25.6071 17.3162 26.4996 16.625Z" fill="white"/>
<path fill-rule="evenodd" clip-rule="evenodd" d="M22.6234 28.6387C22.7274 28.7168 22.8457 28.7737 22.9717 28.8061C23.0977 28.8385 23.2288 28.8458 23.3576 28.8275C23.4864 28.8092 23.6103 28.7658 23.7223 28.6996C23.8343 28.6334 23.9321 28.5458 24.0103 28.4418C24.0884 28.3378 24.1453 28.2195 24.1777 28.0935C24.2101 27.9675 24.2173 27.8364 24.1991 27.7076C24.1808 27.5788 24.1373 27.4549 24.0711 27.3429C24.005 27.2309 23.9174 27.1331 23.8134 27.055L22.7459 26.25L23.5071 25.235C23.7621 24.9526 23.9546 24.6197 24.072 24.2579C24.1895 23.8961 24.2293 23.5136 24.1888 23.1353C24.1484 22.7571 24.0285 22.3917 23.8372 22.0629C23.6458 21.7341 23.3873 21.4495 23.0784 21.2275C22.7929 20.9849 22.4588 20.8062 22.0985 20.7035C21.7382 20.6007 21.3601 20.5763 20.9896 20.6318C20.619 20.6874 20.2647 20.8216 19.9504 21.0254C19.636 21.2293 19.369 21.4981 19.1671 21.8137L17.7321 23.7212C17.6413 23.8245 17.5746 23.9468 17.5369 24.079C17.4991 24.2113 17.4913 24.3503 17.5139 24.486C17.5365 24.6217 17.589 24.7507 17.6676 24.8636C17.7462 24.9764 17.849 25.0704 17.9684 25.1387L22.6234 28.6387ZM20.0421 23.1175C20.1353 22.9692 20.2583 22.8419 20.4034 22.7439C20.5485 22.6458 20.7124 22.5791 20.8847 22.5479C21.057 22.5167 21.234 22.5218 21.4042 22.5628C21.5744 22.6038 21.7343 22.6799 21.8735 22.7861C22.0127 22.8923 22.1282 23.0264 22.2127 23.1798C22.2972 23.3332 22.3488 23.5025 22.3642 23.6769C22.3796 23.8514 22.3584 24.0271 22.3021 24.1929C22.2458 24.3587 22.1556 24.511 22.0371 24.64L21.5209 25.3225L19.5171 23.8175L20.0421 23.1175Z" fill="white"/>
<path d="M50.4571 17.2899L53.8958 18.2524C54.0011 18.2957 54.1143 18.3163 54.228 18.3127C54.3418 18.3091 54.4534 18.2814 54.5557 18.2314C54.658 18.1815 54.7485 18.1105 54.8212 18.023C54.894 17.9355 54.9475 17.8336 54.978 17.724C55.0085 17.6144 55.0154 17.4995 54.9983 17.387C54.9812 17.2745 54.9404 17.1669 54.8787 17.0713C54.8169 16.9757 54.7356 16.8943 54.6401 16.8324C54.5446 16.7706 54.4371 16.7297 54.3246 16.7124L51.8396 16.0211L52.2684 14.4899L54.6396 15.1549C54.7353 15.1922 54.8377 15.2091 54.9402 15.2044C55.0428 15.1997 55.1432 15.1736 55.2351 15.1277C55.327 15.0819 55.4082 15.0172 55.4735 14.9381C55.5389 14.8589 55.587 14.7669 55.6146 14.668C55.6422 14.5691 55.6489 14.4655 55.634 14.364C55.6192 14.2624 55.5832 14.165 55.5285 14.0781C55.4737 13.9913 55.4014 13.9169 55.3161 13.8597C55.2308 13.8025 55.1345 13.7638 55.0334 13.7461L52.6621 13.1249L53.0733 11.6286L55.5671 12.3286C55.6711 12.3568 55.7796 12.3642 55.8865 12.3504C55.9933 12.3366 56.0964 12.3019 56.1898 12.2483C56.2833 12.1947 56.3652 12.1232 56.431 12.0379C56.4968 11.9526 56.5452 11.8551 56.5734 11.7511C56.6015 11.6472 56.6089 11.5386 56.5951 11.4318C56.5813 11.3249 56.5466 11.2219 56.493 11.1284C56.4394 11.035 56.3679 10.953 56.2826 10.8872C56.1973 10.8214 56.0998 10.773 55.9958 10.7449L52.5571 9.7824C52.428 9.73395 52.2898 9.71489 52.1525 9.72658C52.0151 9.73827 51.8821 9.78043 51.7631 9.84999C51.6441 9.91955 51.5421 10.0148 51.4645 10.1287C51.3869 10.2426 51.3357 10.3724 51.3146 10.5086L49.7746 16.0299C49.723 16.1568 49.7001 16.2936 49.7076 16.4304C49.7152 16.5672 49.7529 16.7006 49.8182 16.8211C49.8835 16.9416 49.9746 17.0461 50.0851 17.1272C50.1955 17.2082 50.3226 17.2638 50.4571 17.2899Z" fill="white"/>
<path d="M56.4375 19.4021C56.3096 19.3783 56.1886 19.3263 56.0833 19.2499C55.9729 19.1897 55.8768 19.1064 55.8014 19.0058C55.7261 18.9051 55.6734 18.7894 55.6468 18.6665C55.6202 18.5436 55.6204 18.4164 55.6474 18.2936C55.6744 18.1708 55.7276 18.0553 55.8033 17.9549L58.9708 12.7049C59.0282 12.5897 59.1104 12.4886 59.2114 12.4088C59.3123 12.329 59.4297 12.2724 59.555 12.2432C59.6804 12.2139 59.8106 12.2127 59.9365 12.2396C60.0624 12.2664 60.1808 12.3207 60.2833 12.3986C60.446 12.5006 60.5797 12.6427 60.6716 12.8112C60.7636 12.9798 60.8106 13.1691 60.8083 13.3611L61.2458 18.4274L63.1183 15.2861C63.1826 15.1798 63.2673 15.0873 63.3674 15.0137C63.4675 14.9401 63.5812 14.887 63.7018 14.8573C63.8225 14.8277 63.9478 14.8221 64.0706 14.8408C64.1935 14.8596 64.3114 14.9024 64.4177 14.9667C64.524 15.0311 64.6165 15.1157 64.6901 15.2159C64.7637 15.316 64.8168 15.4296 64.8465 15.5503C64.8761 15.6709 64.8817 15.7963 64.8629 15.9191C64.8442 16.0419 64.8014 16.1598 64.737 16.2661L61.5608 21.5161C61.5028 21.6273 61.4216 21.7247 61.3228 21.8018C61.2238 21.8789 61.1095 21.9338 60.9876 21.9628C60.8656 21.9919 60.7388 21.9944 60.6158 21.9701C60.4928 21.9459 60.3764 21.8955 60.2745 21.8224C60.1091 21.7228 59.9726 21.5814 59.879 21.4125C59.7853 21.2436 59.7376 21.053 59.7408 20.8599L59.3208 15.7499L57.3958 18.8999C57.3425 19.0186 57.2635 19.124 57.1644 19.2083C57.0653 19.2926 56.9486 19.3538 56.8229 19.3873C56.6971 19.4208 56.5655 19.4259 56.4375 19.4021Z" fill="white"/>
<path d="M62.4008 23.7299C62.4952 23.8367 62.613 23.9203 62.745 23.9742C62.877 24.0281 63.0196 24.0509 63.1618 24.0407C63.304 24.0306 63.4419 23.9878 63.5649 23.9157C63.6879 23.8435 63.7925 23.7441 63.8708 23.6249L67.9746 19.2499C68.0823 19.1571 68.169 19.0423 68.2287 18.9132C68.2884 18.7841 68.3199 18.6438 68.3209 18.5016C68.3219 18.3594 68.2926 18.2186 68.2347 18.0886C68.1769 17.9587 68.0919 17.8426 67.9856 17.7482C67.8792 17.6538 67.7539 17.5833 67.618 17.5413C67.4821 17.4993 67.3389 17.4868 67.1978 17.5047C67.0567 17.5226 66.9211 17.5705 66.8 17.6451C66.6789 17.7198 66.5752 17.8194 66.4958 17.9374L62.4008 22.3124C62.2977 22.3995 62.2148 22.508 62.1579 22.6304C62.1011 22.7528 62.0716 22.8862 62.0716 23.0212C62.0716 23.1561 62.1011 23.2895 62.1579 23.4119C62.2148 23.5343 62.2977 23.6429 62.4008 23.7299Z" fill="white"/>
<path d="M66.6971 28.6562L64.5795 25.7687C64.497 25.6655 64.4374 25.5459 64.4048 25.4179C64.3722 25.2898 64.3674 25.1563 64.3906 25.0262C64.4138 24.8962 64.4645 24.7726 64.5393 24.6637C64.6142 24.5548 64.7114 24.4632 64.8245 24.3949L69.4445 20.9999C69.5422 20.9045 69.6596 20.8316 69.7884 20.7863C69.9172 20.7411 70.0544 20.7245 70.1903 20.7378C70.3262 20.7512 70.4575 20.7941 70.575 20.8635C70.6926 20.933 70.7935 21.0273 70.8708 21.1399L73.0408 24.0274C73.1093 24.112 73.1599 24.2096 73.1896 24.3142C73.2193 24.4189 73.2275 24.5286 73.2136 24.6365C73.1997 24.7444 73.1642 24.8484 73.109 24.9422C73.0538 25.036 72.9802 25.1176 72.8925 25.1821C72.8049 25.2467 72.7051 25.2928 72.5992 25.3176C72.4933 25.3425 72.3834 25.3457 72.2762 25.3269C72.169 25.3081 72.0667 25.2678 71.9756 25.2084C71.8844 25.1489 71.8063 25.0716 71.7458 24.9812L70.2146 22.8812L68.9633 23.7999L70.4245 25.7949C70.482 25.8725 70.5236 25.9606 70.547 26.0542C70.5704 26.1479 70.5751 26.2452 70.5609 26.3407C70.5467 26.4362 70.5138 26.5279 70.4641 26.6107C70.4145 26.6934 70.349 26.7656 70.2714 26.823C70.1939 26.8805 70.1057 26.9221 70.0121 26.9455C69.9185 26.9689 69.8211 26.9736 69.7256 26.9594C69.6302 26.9452 69.5384 26.9123 69.4557 26.8626C69.3729 26.813 69.3008 26.7475 69.2433 26.6699L67.782 24.6749L66.4958 25.6199L67.9833 27.7024C68.0595 27.7855 68.1174 27.8837 68.1533 27.9906C68.1891 28.0976 68.2021 28.2108 68.1914 28.3231C68.1806 28.4354 68.1465 28.5441 68.091 28.6423C68.0356 28.7405 67.9601 28.826 67.8695 28.8931C67.7789 28.9603 67.6752 29.0077 67.5651 29.0322C67.4551 29.0568 67.3411 29.0579 67.2305 29.0356C67.12 29.0132 67.0154 28.9679 66.9235 28.9025C66.8316 28.8372 66.7544 28.7532 66.6971 28.6562Z" fill="white"/>
<path d="M13.6898 45.29L13.5935 42.2625H13.6373L18.266 45.5C18.4689 45.6715 18.7266 45.7646 18.9923 45.7625C19.1208 45.7644 19.2482 45.7379 19.3654 45.6849C19.4826 45.632 19.5866 45.5538 19.6702 45.4561C19.7537 45.3584 19.8147 45.2434 19.8488 45.1194C19.8828 44.9954 19.8891 44.8655 19.8673 44.7388L19.7273 40.5388C19.7347 40.4266 19.7186 40.3141 19.6799 40.2085C19.6412 40.103 19.5809 40.0067 19.5027 39.9258C19.4246 39.845 19.3303 39.7815 19.2261 39.7393C19.1219 39.6971 19.01 39.6772 18.8977 39.6809C18.7853 39.6846 18.6749 39.7118 18.5737 39.7607C18.4725 39.8096 18.3826 39.8792 18.31 39.965C18.2373 40.0507 18.1833 40.1508 18.1517 40.2586C18.12 40.3665 18.1112 40.4798 18.126 40.5913L18.2223 43.4613H18.196L13.5498 40.1713C13.3395 40.0017 13.0761 39.9118 12.806 39.9175C12.6783 39.9159 12.5518 39.9422 12.4354 39.9946C12.3189 40.0471 12.2154 40.1244 12.132 40.2211C12.0486 40.3178 11.9874 40.4316 11.9527 40.5545C11.918 40.6774 11.9106 40.8064 11.931 40.9325L12.071 45.3075C12.058 45.4218 12.0702 45.5376 12.1068 45.6467C12.1433 45.7558 12.2033 45.8555 12.2825 45.9389C12.3618 46.0223 12.4583 46.0873 12.5654 46.1294C12.6725 46.1715 12.7875 46.1896 12.9023 46.1825C13.0156 46.185 13.1281 46.1627 13.2319 46.1172C13.3357 46.0718 13.4284 46.0042 13.5033 45.9192C13.5783 45.8342 13.6339 45.7339 13.6661 45.6252C13.6983 45.5165 13.7064 45.4021 13.6898 45.29Z" fill="white"/>
<path fill-rule="evenodd" clip-rule="evenodd" d="M21.0311 49.3849C21.7224 51.6249 20.6636 53.5236 18.2836 54.2499C15.9036 54.9411 13.9874 53.9699 13.2961 51.7299C12.6049 49.4899 13.6636 47.5911 16.0349 46.8649C18.4061 46.1386 20.3399 47.1449 21.0311 49.3849ZM16.6649 48.7724C15.2386 49.2099 14.5474 50.1724 14.8711 51.2399C15.1599 52.2986 16.3061 52.7274 17.7324 52.2899C19.1586 51.8524 19.8499 50.8724 19.5261 49.8224C19.2024 48.7724 18.0911 48.3349 16.6649 48.7724Z" fill="white"/>
<path fill-rule="evenodd" clip-rule="evenodd" d="M23.9448 55.9213L22.746 54.11C22.6789 53.9898 22.5862 53.8859 22.4743 53.8056C22.3625 53.7254 22.2343 53.6708 22.099 53.6457C21.9636 53.6206 21.8244 53.6257 21.6912 53.6606C21.5581 53.6955 21.4342 53.7593 21.3285 53.8475L16.551 57.015C16.4281 57.0776 16.3205 57.1665 16.2359 57.2754C16.1514 57.3843 16.0919 57.5106 16.0618 57.6452C16.0317 57.7798 16.0317 57.9194 16.0618 58.054C16.092 58.1886 16.1514 58.3148 16.236 58.4238L17.4435 60.235C18.7385 62.2038 20.7248 62.5538 22.8073 61.18C24.8898 59.8063 25.2485 57.89 23.9448 55.9213ZM21.6785 59.5C20.3748 60.375 19.3423 60.2175 18.6248 59.1325L18.1085 58.3625L21.9498 55.8163L22.466 56.5863C23.1573 57.6363 22.8948 58.6863 21.6785 59.5Z" fill="white"/>
<path fill-rule="evenodd" clip-rule="evenodd" d="M27.0683 59.8674L28.8708 61.4336C29.1688 61.6607 29.4147 61.949 29.592 62.279C29.7693 62.6091 29.8739 62.9733 29.8988 63.3471C29.9237 63.7209 29.8682 64.0958 29.7362 64.4464C29.6042 64.797 29.3986 65.1153 29.1333 65.3799C28.8897 65.6716 28.5874 65.9086 28.246 66.0756C27.9046 66.2425 27.5319 66.3357 27.1521 66.3489C26.7723 66.3621 26.394 66.2951 26.0419 66.1522C25.6897 66.0094 25.3716 65.7939 25.1083 65.5199L24.1458 64.6449L23.2708 65.6774C23.1999 65.797 23.1014 65.898 22.9837 65.972C22.8659 66.046 22.7321 66.0908 22.5936 66.1028C22.455 66.1148 22.3155 66.0935 22.1868 66.0409C22.0581 65.9882 21.9438 65.9056 21.8533 65.7999C21.7413 65.7192 21.649 65.6143 21.5831 65.493C21.5172 65.3717 21.4795 65.2371 21.4728 65.0992C21.466 64.9614 21.4905 64.8237 21.5442 64.6966C21.598 64.5695 21.6797 64.4561 21.7833 64.3649L25.6421 59.9899C25.7127 59.8686 25.8115 59.766 25.9301 59.6909C26.0486 59.6158 26.1836 59.5703 26.3234 59.5583C26.4633 59.5463 26.604 59.5681 26.7336 59.6219C26.8633 59.6757 26.9781 59.7599 27.0683 59.8674ZM27.2507 64.3995C27.4065 64.3173 27.5416 64.2007 27.6458 64.0586L27.6021 64.0499C27.7283 63.9313 27.8264 63.786 27.8893 63.6247C27.9522 63.4634 27.9783 63.2901 27.9658 63.1174C27.9532 62.9447 27.9022 62.7769 27.8166 62.6264C27.731 62.4759 27.6129 62.3464 27.4708 62.2474L26.8146 61.6699L25.1608 63.5511L25.8171 64.1199C25.9306 64.2547 26.0732 64.3619 26.2341 64.4336C26.3951 64.5052 26.5702 64.5394 26.7463 64.5335C26.9224 64.5276 27.0949 64.4818 27.2507 64.3995Z" fill="white"/>
<path fill-rule="evenodd" clip-rule="evenodd" d="M34.3746 64.8636C32.2396 63.8486 30.2271 64.6099 29.1246 66.8499C28.0221 69.0899 28.7308 71.1374 30.8746 72.1524C33.0183 73.1674 35.0133 72.4149 36.1246 70.1661C37.2358 67.9174 36.5096 65.8786 34.3746 64.8636ZM34.2958 69.2999C33.6571 70.6386 32.5983 71.1724 31.6008 70.6999C30.6033 70.2274 30.3496 69.0636 30.9883 67.7249C31.6271 66.3861 32.6858 65.8436 33.6833 66.3161C34.6808 66.7886 34.9346 67.9524 34.2958 69.2999Z" fill="white"/>
<path d="M43.0001 67.4581C43.2042 67.348 43.4422 67.3183 43.667 67.3749C43.802 67.3828 43.9336 67.4202 44.0527 67.4843C44.1717 67.5484 44.2753 67.6378 44.3561 67.7462C44.437 67.8545 44.4932 67.9793 44.5207 68.1116C44.5483 68.244 44.5466 68.3808 44.5158 68.5124C44.4811 68.6901 44.4192 68.8613 44.332 69.0199L41.5233 74.0162C41.3874 74.3524 41.1378 74.6304 40.818 74.8015C40.4982 74.9725 40.1284 75.026 39.7733 74.9524C39.4084 74.9105 39.0697 74.7424 38.8156 74.4772C38.5616 74.2119 38.4082 73.8663 38.382 73.4999L37.3408 67.8649C37.3107 67.6795 37.3107 67.4904 37.3408 67.3049C37.4066 67.067 37.5535 66.8595 37.7561 66.7184C37.9587 66.5773 38.2042 66.5114 38.4503 66.5321C38.6963 66.5529 38.9273 66.659 39.1034 66.8321C39.2795 67.0051 39.3895 67.2343 39.4145 67.4799L40.132 72.8612H40.1758L42.5645 67.9699C42.6407 67.7509 42.7961 67.5683 43.0001 67.4581Z" fill="white"/>
<path d="M49.8711 73.3688L47.2461 73.5876L47.1149 72.0038L49.5736 71.7938C49.6781 71.7986 49.7823 71.781 49.8794 71.7423C49.9765 71.7035 50.0643 71.6445 50.1367 71.5692C50.2092 71.4938 50.2648 71.4039 50.2998 71.3054C50.3347 71.2068 50.3483 71.102 50.3395 70.9978C50.3307 70.8936 50.2998 70.7925 50.2488 70.7012C50.1978 70.61 50.128 70.5306 50.0439 70.4685C49.9598 70.4063 49.8635 70.3628 49.7612 70.3409C49.659 70.319 49.5533 70.3191 49.4511 70.3413L46.9924 70.5513L46.8611 69.0026L49.4424 68.7838C49.5519 68.7805 49.6596 68.7549 49.7589 68.7085C49.8582 68.6622 49.947 68.596 50.0199 68.5141C50.0927 68.4322 50.148 68.3363 50.1825 68.2323C50.2169 68.1282 50.2298 68.0182 50.2202 67.9091C50.2107 67.7999 50.1789 67.6938 50.127 67.5973C50.075 67.5008 50.0038 67.416 49.9179 67.348C49.832 67.2799 49.733 67.2302 49.6272 67.2018C49.5214 67.1733 49.4108 67.1668 49.3024 67.1826L45.7411 67.4888C45.6052 67.492 45.4717 67.5253 45.3502 67.5863C45.2287 67.6473 45.1222 67.7345 45.0385 67.8417C44.9548 67.9488 44.8959 68.0732 44.8661 68.2059C44.8363 68.3385 44.8363 68.4762 44.8661 68.6088L45.3386 74.3138C45.3369 74.4503 45.365 74.5856 45.4211 74.7101C45.4771 74.8346 45.5598 74.9453 45.6631 75.0345C45.7665 75.1237 45.8882 75.1893 46.0195 75.2265C46.1509 75.2637 46.2888 75.2718 46.4236 75.2501L49.9849 74.9526C50.1013 74.9636 50.2188 74.9491 50.3291 74.9101C50.4394 74.8711 50.5398 74.8086 50.6235 74.7268C50.7071 74.645 50.772 74.546 50.8135 74.4366C50.8549 74.3273 50.8721 74.2102 50.8637 74.0935C50.8553 73.9768 50.8216 73.8633 50.7649 73.761C50.7082 73.6587 50.6299 73.57 50.5355 73.501C50.441 73.432 50.3326 73.3844 50.2179 73.3616C50.1031 73.3388 49.9848 73.3412 49.8711 73.3688Z" fill="white"/>
<path fill-rule="evenodd" clip-rule="evenodd" d="M51.5247 66.78L53.5722 66.0537C55.7947 65.2662 57.5534 66.1062 58.3847 68.4512C59.2159 70.7962 58.3934 72.6425 56.1709 73.4212L54.1234 74.1475C53.9976 74.204 53.8607 74.2318 53.7228 74.2288C53.5849 74.2257 53.4494 74.192 53.3262 74.13C53.2029 74.0679 53.0951 73.9792 53.0105 73.8702C52.9259 73.7612 52.8667 73.6347 52.8372 73.5L50.9297 68.0925C50.8679 67.969 50.8344 67.8332 50.8318 67.6952C50.8291 67.5571 50.8573 67.4202 50.9144 67.2944C50.9714 67.1686 51.0558 67.0572 51.1614 66.9682C51.2669 66.8792 51.3911 66.8149 51.5247 66.78ZM54.5172 72.3012L55.3922 71.995C56.6172 71.5575 56.9672 70.4725 56.4772 69.09C55.9872 67.7075 55.0334 67.2 53.8522 67.62L52.9772 67.9262L54.5172 72.3012Z" fill="white"/>
<path d="M63.3637 61.3637C63.2976 61.249 63.2081 61.1495 63.1011 61.0716C62.9941 60.9936 62.8719 60.939 62.7425 60.9113C62.613 60.8837 62.4792 60.8835 62.3496 60.9108C62.2201 60.9382 62.0978 60.9924 61.9905 61.07C61.8833 61.1477 61.7936 61.247 61.7272 61.3615C61.6608 61.4761 61.6193 61.6033 61.6052 61.7349C61.5911 61.8665 61.6048 61.9997 61.6455 62.1256C61.6861 62.2516 61.7528 62.3677 61.8412 62.4662L63.9849 65.45L59.1287 63.875C58.9533 63.7944 58.7597 63.7617 58.5676 63.7802C58.3755 63.7986 58.1918 63.8676 58.0349 63.98C57.9238 64.0436 57.828 64.1307 57.7543 64.2353C57.6806 64.3399 57.6307 64.4594 57.6081 64.5854C57.5856 64.7114 57.591 64.8408 57.6239 64.9645C57.6568 65.0882 57.7165 65.2031 57.7987 65.3012L61.3774 70.2712C61.4465 70.3798 61.537 70.4732 61.6434 70.5456C61.7498 70.6179 61.8698 70.6678 61.9962 70.6922C62.1226 70.7165 62.2526 70.7147 62.3782 70.6871C62.5039 70.6594 62.6226 70.6063 62.727 70.5311C62.8315 70.4559 62.9194 70.3602 62.9856 70.2498C63.0517 70.1394 63.0946 70.0166 63.1116 69.8891C63.1286 69.7615 63.1194 69.6318 63.0845 69.508C63.0496 69.3841 62.9897 69.2687 62.9087 69.1687L60.7387 66.1587L65.6212 67.76C65.7971 67.8402 65.9912 67.8719 66.1835 67.8519C66.3758 67.832 66.5593 67.7609 66.7149 67.6462C66.8219 67.5809 66.9136 67.4933 66.9838 67.3895C67.054 67.2856 67.101 67.1679 67.1218 67.0443C67.1425 66.9207 67.1365 66.794 67.104 66.6729C67.0716 66.5519 67.0135 66.4392 66.9337 66.3425L63.3637 61.3637Z" fill="white"/>
<path fill-rule="evenodd" clip-rule="evenodd" d="M65.3233 57.4174C66.767 55.5449 68.902 55.3087 70.8708 56.8224C72.8483 58.3449 73.1895 60.4537 71.7458 62.3349C70.302 64.2162 68.1933 64.4437 66.1983 62.9299C64.2033 61.4162 63.8795 59.2899 65.3233 57.4174ZM67.4058 61.3549C68.5783 62.2299 69.7683 62.2299 70.442 61.3549C71.1245 60.4799 70.827 59.2987 69.6458 58.4237C68.4645 57.5487 67.2745 57.5487 66.6008 58.4237C65.927 59.2987 66.2333 60.4799 67.4058 61.3549Z" fill="white"/>
<path d="M75.0973 50.4087C73.9511 49.9537 73.0411 50.4087 72.1223 51.8349L71.6848 52.5174C71.2211 53.2437 70.8798 53.4887 70.4948 53.3399C70.1098 53.1912 69.9261 52.6487 70.1973 51.9837C70.2746 51.7472 70.4193 51.5384 70.6136 51.3829C70.8079 51.2275 71.0433 51.1322 71.2911 51.1087C71.4867 51.098 71.6746 51.0289 71.8306 50.9104C71.9865 50.7918 72.1034 50.6293 72.1661 50.4437C72.2209 50.3448 72.2535 50.2352 72.2617 50.1224C72.2698 50.0097 72.2534 49.8965 72.2134 49.7908C72.1735 49.685 72.1109 49.5893 72.0302 49.5101C71.9495 49.431 71.8526 49.3703 71.7461 49.3324C71.6102 49.2767 71.4641 49.2499 71.3173 49.2537C70.2586 49.2537 69.3223 50.0324 68.7623 51.4237C68.0973 53.0862 68.5086 54.6612 69.8998 55.2212C71.0111 55.6587 72.0173 55.2212 72.8661 53.8649L73.3123 53.1649C73.8198 52.3774 74.1873 52.1499 74.5461 52.2899C74.9048 52.4299 75.1236 53.0599 74.8348 53.7774C74.7595 54.0467 74.6093 54.2891 74.4018 54.4765C74.1943 54.6639 73.9379 54.7886 73.6623 54.8362C73.4793 54.852 73.3048 54.9209 73.1603 55.0343C73.0157 55.1478 72.9074 55.3009 72.8486 55.4749C72.8001 55.5765 72.7733 55.687 72.7697 55.7995C72.7662 55.912 72.786 56.024 72.8279 56.1284C72.8699 56.2329 72.933 56.3275 73.0134 56.4063C73.0937 56.4851 73.1896 56.5463 73.2948 56.5862C73.4539 56.647 73.6232 56.6767 73.7936 56.6737C74.6686 56.6737 75.6311 55.9562 76.2698 54.3899C76.9961 52.4999 76.5498 50.9949 75.0973 50.4087Z" fill="white"/>
<path d="M72.1658 44.6863L77.4158 45.3863H77.3808C77.5196 45.3916 77.6558 45.4259 77.7806 45.4869C77.9053 45.5479 78.016 45.6343 78.1055 45.7405C78.195 45.8467 78.2613 45.9705 78.3001 46.1039C78.339 46.2372 78.3496 46.3772 78.3312 46.5149C78.3129 46.6525 78.266 46.7849 78.1935 46.9034C78.1211 47.0219 78.0247 47.1239 77.9105 47.203C77.7963 47.2821 77.6669 47.3365 77.5305 47.3627C77.3941 47.3888 77.2537 47.3862 77.1183 47.355L71.8683 46.6463L71.6846 48.0025C71.6827 48.1126 71.658 48.2211 71.6121 48.3211C71.5662 48.4211 71.5 48.5106 71.4178 48.5837C71.3356 48.6569 71.2391 48.7122 71.1344 48.7462C71.0297 48.7803 70.9191 48.7922 70.8096 48.7813C70.696 48.7703 70.5861 48.7344 70.4879 48.6762C70.3897 48.6181 70.3055 48.539 70.2412 48.4447C70.1769 48.3503 70.1341 48.243 70.1159 48.1303C70.0977 48.0176 70.1045 47.9023 70.1358 47.7925L70.7571 43.1025C70.7659 42.9933 70.7968 42.8871 70.8481 42.7903C70.8993 42.6935 70.9698 42.6082 71.0552 42.5396C71.1406 42.471 71.239 42.4205 71.3446 42.3913C71.4501 42.362 71.5605 42.3546 71.669 42.3695C71.7775 42.3845 71.8819 42.4213 71.9756 42.478C72.0694 42.5346 72.1506 42.6097 72.2143 42.6988C72.278 42.7879 72.3229 42.8891 72.3461 42.9961C72.3694 43.1031 72.3706 43.2138 72.3496 43.3213L72.1658 44.6863Z" fill="white"/>
<path d="M77.5123 39.7336L71.5361 39.9699C71.4028 39.9751 71.2718 40.0064 71.1507 40.0622C71.0295 40.118 70.9205 40.1971 70.8299 40.295C70.6469 40.4928 70.55 40.7551 70.5605 41.0243C70.5709 41.2935 70.6879 41.5475 70.8856 41.7304C71.0833 41.9134 71.3456 42.0103 71.6148 41.9999L77.5911 41.7636C77.7291 41.7699 77.8669 41.7474 77.9957 41.6977C78.1245 41.6479 78.2416 41.5719 78.3396 41.4745C78.4375 41.3771 78.5142 41.2604 78.5647 41.1319C78.6152 41.0033 78.6384 40.8657 78.633 40.7276C78.6275 40.5896 78.5934 40.4543 78.5329 40.3301C78.4724 40.2059 78.3867 40.0957 78.2814 40.0064C78.176 39.917 78.0533 39.8506 77.9209 39.8111C77.7885 39.7717 77.6494 39.7602 77.5123 39.7774V39.7336Z" fill="white"/>
<path d="M41.7422 48.2738L55.3834 34.6413C55.5423 34.4654 55.7353 34.3235 55.9506 34.2244C56.166 34.1253 56.3992 34.0709 56.6362 34.0647C56.8732 34.0584 57.1089 34.1004 57.3292 34.188C57.5495 34.2757 57.7496 34.4071 57.9176 34.5745C58.0855 34.7418 58.2177 34.9415 58.3061 35.1615C58.3945 35.3814 58.4373 35.617 58.4319 35.854C58.4264 36.091 58.3729 36.3245 58.2746 36.5402C58.1762 36.7559 58.0351 36.9493 57.8597 37.1088L42.9847 51.9838C42.8219 52.1476 42.6283 52.2775 42.415 52.3661C42.2018 52.4547 41.9731 52.5002 41.7422 52.5001C41.2788 52.4981 40.8351 52.3124 40.5084 51.9838L34.3834 45.8588C34.0824 45.5254 33.9211 45.089 33.9329 44.6399C33.9448 44.1908 34.1289 43.7635 34.4471 43.4464C34.7653 43.1293 35.1933 42.9467 35.6424 42.9365C36.0915 42.9262 36.5273 43.0891 36.8597 43.3913L41.7422 48.2738Z" fill="white"/>
</svg>
