<svg width="150" height="72" viewBox="0 0 150 72" fill="none" xmlns="http://www.w3.org/2000/svg">
<path d="M114.875 27.0961V33.3855L114.879 33.3865V37.7681C114.879 37.9072 114.879 38.0466 114.878 38.1862L114.876 38.4717C114.872 39.0839 114.868 39.6989 114.891 40.3109C114.903 40.6216 115.036 40.9153 115.261 41.1297C115.486 41.3441 115.786 41.4621 116.097 41.4588C116.257 41.4695 116.417 41.4487 116.568 41.3974C116.719 41.3462 116.859 41.2657 116.98 41.1604C117.1 41.055 117.198 40.927 117.269 40.7837C117.34 40.6403 117.382 40.4844 117.392 40.3249C117.408 40.1609 117.398 39.9939 117.398 39.8299V27.0391C117.407 26.8507 117.403 26.662 117.386 26.4741C117.338 26.173 117.182 25.8994 116.948 25.7042C116.714 25.5089 116.417 25.405 116.112 25.4119C115.807 25.4187 115.515 25.5357 115.289 25.7413C115.064 25.9469 114.921 26.2271 114.886 26.5301C114.872 26.7184 114.868 26.9074 114.875 27.0961Z" fill="#93BF3E"/>
<path d="M71.5591 25.5052C70.6615 25.4231 69.7598 25.3964 68.859 25.4252L68.8571 25.4452C68.5074 25.4452 68.1823 25.4427 67.873 25.4402C67.2977 25.4357 66.7773 25.4316 66.2571 25.4452C65.9341 25.4565 65.6279 25.5923 65.4028 25.8243C65.1779 26.0562 65.0513 26.3662 65.0497 26.6894C65.0481 27.0125 65.1718 27.3237 65.3945 27.5578C65.6174 27.7919 65.9221 27.9306 66.245 27.945C67.1082 27.955 67.9736 27.9517 68.8397 27.9483L68.8452 27.9483C69.1071 27.9473 69.369 27.9463 69.631 27.9457L69.9316 27.9451L70.14 27.945C70.6122 27.9369 71.0837 27.9838 71.545 28.085C72.0571 28.1871 72.532 28.4259 72.9193 28.7761C73.3066 29.1262 73.5919 29.5746 73.745 30.0738C74.0884 31.0356 74.1195 32.0811 73.834 33.0615C73.6975 33.6294 73.3864 34.1403 72.9445 34.5222C72.5024 34.904 71.9518 35.1377 71.37 35.1903C71.0422 35.2305 70.7123 35.2492 70.3821 35.2463H66.7001C66.4655 35.2388 66.2308 35.2565 66 35.2993C65.7461 35.3603 65.5189 35.5024 65.353 35.7042C65.1871 35.9059 65.0917 36.1563 65.0811 36.4172C65.0598 36.6897 65.1298 36.9615 65.2798 37.1899C65.4298 37.4183 65.6515 37.5904 65.91 37.6791C66.0892 37.7402 66.2767 37.7739 66.4661 37.7791C68.233 37.8549 70.0032 37.8215 71.766 37.6791C72.5701 37.6017 73.3438 37.3326 74.0223 36.8946C74.7009 36.4565 75.2645 35.8621 75.666 35.1613C76.1136 34.383 76.4033 33.5239 76.5184 32.6334C76.6337 31.7429 76.572 30.8385 76.337 29.9718C76.1296 28.8113 75.5522 27.7491 74.6909 26.944C73.8297 26.1388 72.731 25.6341 71.5591 25.5052Z" fill="#93BF3E"/>
<path d="M90.2726 38.8413C90.2908 38.7302 90.3092 38.6184 90.394 38.528L90.389 38.522C90.5074 38.6398 90.5922 38.7873 90.634 38.949C91.4886 40.9421 92.3444 42.9343 93.2011 44.9254C93.3115 45.2111 93.4412 45.4891 93.589 45.7574C93.7517 46.0219 94.0049 46.2185 94.3015 46.3104C94.5983 46.4024 94.9182 46.3835 95.202 46.2573C95.4823 46.1267 95.7051 45.8982 95.8287 45.6148C95.9523 45.3314 95.968 45.0127 95.873 44.7185C95.8607 44.679 95.847 44.6401 95.8326 44.6015L95.8186 44.565L95.8109 44.5452C95.7843 44.4778 95.7554 44.4111 95.726 44.3441L95.7124 44.3127L95.7095 44.3061L95.668 44.2104C95.6565 44.1836 95.6451 44.1567 95.634 44.1295C93.1154 38.2581 90.5959 32.3893 88.0761 26.5231C88.0189 26.3688 87.9522 26.2181 87.876 26.0722C87.7308 25.8197 87.5033 25.6248 87.2316 25.52C86.9598 25.4152 86.6603 25.4069 86.3832 25.4965C86.1061 25.5861 85.868 25.7681 85.7091 26.0122C85.5502 26.2562 85.4799 26.5474 85.51 26.8371C85.5437 27.0704 85.6179 27.2961 85.729 27.5041C87.1023 30.6851 88.469 33.8681 89.829 37.0532C89.8467 37.0955 89.8701 37.1374 89.894 37.1801C89.9713 37.3181 90.0527 37.4638 89.958 37.6531C89.5974 37.4186 89.1751 37.2971 88.745 37.3041C87.0034 37.2225 85.2582 37.2854 83.527 37.4921C83.5584 37.4128 83.5875 37.3371 83.6157 37.2638C83.6417 37.196 83.667 37.1303 83.6925 37.0658C83.7184 37.0006 83.7445 36.9367 83.772 36.8732C84.5826 34.9894 85.3916 33.1055 86.199 31.2217C86.3118 30.9884 86.4044 30.7459 86.476 30.4968C86.5449 30.2069 86.5092 29.902 86.375 29.636C86.2408 29.3699 86.017 29.1599 85.7429 29.0429C85.4689 28.926 85.1622 28.9098 84.8773 28.997C84.5924 29.0843 84.3475 29.2695 84.186 29.5199C84.0886 29.6809 84.0062 29.8506 83.9399 30.0268C81.9 34.769 79.8636 39.5119 77.8309 44.2555C77.7476 44.4247 77.6766 44.5998 77.619 44.7795C77.5446 45.0672 77.5728 45.3718 77.6986 45.641C77.8246 45.9102 78.0404 46.1271 78.309 46.2543C78.5898 46.3867 78.9097 46.4107 79.2073 46.3218C79.5048 46.2329 79.7589 46.0372 79.921 45.7724C80.0369 45.5679 80.1372 45.355 80.2209 45.1354C81.047 43.2069 81.8754 41.2798 82.7059 39.354C82.7831 39.1146 82.9026 38.891 83.059 38.694C83.49 39.5699 83.736 39.8289 84.329 39.8379C85.9349 39.8599 87.541 39.8529 89.148 39.8379C89.3864 39.8298 89.6166 39.7496 89.8084 39.6079C90.0001 39.4661 90.1444 39.2695 90.222 39.044C90.2258 39.0352 90.2294 39.0262 90.2327 39.0172L90.2366 39.0062C90.2422 38.9896 90.2468 38.9727 90.251 38.9557C90.2576 38.9285 90.2626 38.9008 90.2673 38.8729L90.2726 38.8413Z" fill="#93BF3E"/>
<path d="M100.999 31.4017C101.499 31.5237 101.93 31.8382 102.199 32.2766C102.88 33.1621 103.815 33.8194 104.878 34.1614C105.318 34.324 105.761 34.4766 106.204 34.6291C106.631 34.7758 107.057 34.9224 107.478 35.0774C108.438 35.4184 109.321 35.9443 110.078 36.6252C110.338 36.8322 110.52 37.1218 110.594 37.4461C110.641 37.6912 110.613 37.9448 110.513 38.1733C110.412 38.4019 110.245 38.5946 110.033 38.726C109.83 38.8775 109.582 38.9553 109.329 38.9465C109.076 38.9378 108.834 38.8431 108.642 38.678C107.522 37.769 106.206 37.132 104.798 36.8172C103.667 36.4758 102.597 35.9542 101.632 35.2723C101.077 34.8714 100.589 34.3851 100.186 33.8315C99.535 32.9206 99.5231 32.6236 100.104 31.6727C100.07 31.5924 100.002 31.565 99.9321 31.5371L99.9165 31.5308L99.9025 31.5249L99.8811 31.5157C99.5702 31.426 99.3057 31.2204 99.1421 30.9412C98.9785 30.6621 98.9283 30.3308 99.0021 30.0158C99.0662 29.3325 99.2761 28.671 99.6177 28.0757C99.9592 27.4804 100.424 26.9653 100.982 26.5651C102.128 25.7495 103.522 25.3579 104.925 25.4572C105.813 25.4503 106.693 25.627 107.509 25.9763C108.325 26.3256 109.06 26.84 109.668 27.4871C110.505 28.3975 111.016 29.5604 111.119 30.7928C111.158 31.1242 111.067 31.4579 110.865 31.7236C110.663 31.9893 110.366 32.1662 110.036 32.2173C109.706 32.2683 109.369 32.1894 109.097 31.9972C108.824 31.805 108.636 31.5145 108.573 31.1867C108.562 31.1436 108.554 31.1002 108.547 31.0564C108.543 31.0349 108.541 31.0134 108.538 30.9919C108.535 30.9639 108.533 30.9359 108.531 30.9077C108.434 30.2285 108.132 29.5951 107.664 29.0925C107.197 28.59 106.588 28.2422 105.917 28.096C105.06 27.9125 104.169 27.9588 103.335 28.23C102.863 28.356 102.44 28.6217 102.122 28.9924C101.804 29.363 101.605 29.8212 101.552 30.3068C101.502 30.7258 101.305 31.1136 100.997 31.4017H100.999Z" fill="#93BF3E"/>
<path d="M135.805 25.7077C135.582 25.5296 135.306 25.4307 135.02 25.4262H135.024C134.829 25.4224 134.635 25.4636 134.458 25.5466C134.282 25.6297 134.126 25.7524 134.005 25.9053C133.883 26.0581 133.798 26.2369 133.757 26.4278C133.715 26.6187 133.719 26.8166 133.766 27.0061C133.818 27.1872 133.88 27.3651 133.952 27.539L139.552 42.6376C139.652 42.9064 139.75 43.1756 139.849 43.4449L139.853 43.4551C140.109 44.1553 140.365 44.8555 140.646 45.5464C140.7 45.7043 140.785 45.8497 140.896 45.9737C141.008 46.0978 141.143 46.1978 141.294 46.2678C141.446 46.3377 141.61 46.3762 141.777 46.3807C141.943 46.3853 142.109 46.3559 142.264 46.2943C142.421 46.2409 142.565 46.1569 142.688 46.0473C142.812 45.9377 142.913 45.8046 142.984 45.6558C143.056 45.5069 143.098 45.3453 143.107 45.1803C143.116 45.0153 143.092 44.8501 143.036 44.6945C142.993 44.5432 142.936 44.3919 142.878 44.2406L142.845 44.1537L142.823 44.0945C141.176 39.6563 139.529 35.218 137.881 30.7797C137.344 29.3212 136.801 27.8647 136.254 26.4101C136.186 26.1328 136.028 25.8857 135.805 25.7077Z" fill="#93BF3E"/>
<path d="M100.628 45.3524C101.962 46.0505 103.456 46.3876 104.961 46.3303C106.522 46.3495 108.052 45.8876 109.341 45.0074C110.041 44.5014 110.619 43.8455 111.032 43.0876C111.446 42.3297 111.686 41.489 111.733 40.6268C111.749 40.457 111.731 40.2855 111.68 40.1228C111.628 39.9601 111.544 39.8095 111.433 39.6801C111.322 39.5506 111.186 39.445 111.033 39.3695C110.88 39.2941 110.713 39.2503 110.542 39.241C110.372 39.2316 110.201 39.2568 110.041 39.315C109.881 39.3732 109.734 39.4632 109.609 39.5797C109.484 39.6962 109.384 39.8367 109.315 39.9927C109.246 40.1488 109.209 40.3172 109.207 40.4879C109.18 41.2373 108.902 41.956 108.417 42.5284C107.933 43.1007 107.27 43.4935 106.535 43.6436C105.618 43.886 104.661 43.9316 103.725 43.7775C101.572 43.4326 99.849 41.9487 99.913 39.9099C99.9171 39.7367 99.8844 39.5646 99.8169 39.405C99.7494 39.2455 99.6486 39.1021 99.5214 38.9846C99.394 38.867 99.2433 38.7778 99.0789 38.7231C98.9144 38.6683 98.7404 38.6492 98.568 38.667C98.3956 38.6664 98.2252 38.7026 98.0681 38.7733C97.9111 38.8441 97.771 38.9476 97.6572 39.077C97.5436 39.2065 97.4589 39.3587 97.4091 39.5236C97.3591 39.6885 97.3451 39.8621 97.3679 40.0329C97.3479 41.138 97.644 42.2259 98.2217 43.1683C98.7992 44.1108 99.6342 44.8685 100.628 45.3524Z" fill="#93BF3E"/>
<path d="M143.366 40.8139C143.559 40.9018 143.771 40.9406 143.983 40.9268C143.999 40.923 144.018 40.9186 144.041 40.9136C144.102 40.9 144.184 40.8816 144.265 40.8568C144.487 40.7757 144.686 40.6415 144.844 40.4658C145.003 40.2901 145.115 40.0783 145.173 39.8489C146.723 35.7066 148.273 31.565 149.824 27.4241C149.888 27.2721 149.94 27.1153 149.979 26.9551C150.039 26.6517 149.987 26.3368 149.833 26.0689C149.678 25.8011 149.431 25.5986 149.138 25.4992C148.858 25.3988 148.551 25.4016 148.272 25.5071C147.994 25.6127 147.762 25.8141 147.619 26.0752C147.534 26.2427 147.462 26.4165 147.404 26.5951C146.057 30.1848 144.711 33.7755 143.366 37.3671C143.299 37.5464 143.229 37.7252 143.16 37.9042C142.99 38.3401 142.821 38.7768 142.683 39.222C142.614 39.4225 142.595 39.6371 142.629 39.8467C142.662 40.0562 142.747 40.2542 142.876 40.4229C143.005 40.5917 143.173 40.726 143.366 40.8139Z" fill="#93BF3E"/>
<path d="M131.16 33.5245V39.7429C131.17 39.9767 131.16 40.2108 131.13 40.4429C131.074 40.7381 130.914 41.0037 130.68 41.1921C130.445 41.3805 130.152 41.4795 129.851 41.4713C129.551 41.4631 129.263 41.3484 129.039 41.1475C128.815 40.9466 128.67 40.6728 128.63 40.3749C128.615 40.1866 128.611 39.9976 128.619 39.8089V27.1621C128.609 26.95 128.614 26.7375 128.635 26.5261C128.677 26.2244 128.827 25.9481 129.056 25.7481C129.286 25.548 129.58 25.4379 129.885 25.4379C130.19 25.4379 130.484 25.548 130.714 25.7481C130.944 25.9481 131.093 26.2244 131.135 26.5261C131.161 26.7585 131.17 26.9924 131.162 27.2261V33.5155L131.16 33.5245Z" fill="#93BF3E"/>
<path d="M123.374 46.3523C121.71 46.424 120.051 46.1316 118.512 45.4954C117.665 45.1279 116.902 44.5921 116.269 43.9205C116.093 43.7281 115.979 43.4873 115.942 43.2293C115.905 42.9712 115.946 42.708 116.06 42.4737C116.18 42.2409 116.37 42.0518 116.603 41.9335C116.837 41.8151 117.102 41.7736 117.36 41.8147C117.621 41.8432 117.862 41.9637 118.042 42.1547C119.177 43.2133 120.672 43.7997 122.224 43.7945C123.285 43.8787 124.352 43.7926 125.385 43.5396C126.306 43.3186 127.154 42.8629 127.847 42.2167C127.959 42.0892 128.096 41.9857 128.249 41.9123C128.401 41.8389 128.568 41.7972 128.737 41.7897C128.907 41.7822 129.076 41.809 129.235 41.8686C129.394 41.9281 129.539 42.0191 129.662 42.1362C129.785 42.2533 129.882 42.3939 129.949 42.5498C130.016 42.7056 130.051 42.8734 130.052 43.043C130.053 43.2127 130.019 43.3807 129.953 43.537C129.887 43.6933 129.79 43.8346 129.668 43.9525C129.213 44.4334 128.687 44.8421 128.109 45.1644C126.658 45.9567 125.029 46.3665 123.375 46.3553L123.374 46.3523Z" fill="#93BF3E"/>
<path d="M64.63 44.6525V35.8863L64.6331 35.8913V27.1251C64.6428 26.9137 64.6335 26.7018 64.605 26.4921C64.5544 26.1861 64.3933 25.9093 64.1522 25.7142C63.9113 25.519 63.6069 25.419 63.297 25.4332C63 25.4442 62.7167 25.5611 62.4984 25.7629C62.28 25.9646 62.1412 26.2379 62.1071 26.5331C62.0833 26.7439 62.075 26.9561 62.082 27.1681V44.5595C62.0752 44.7931 62.0842 45.027 62.109 45.2594C62.1488 45.5527 62.2909 45.8225 62.51 46.0214C62.7292 46.2202 63.0116 46.3354 63.3075 46.3465C63.6033 46.3576 63.8934 46.264 64.127 46.0821C64.3605 45.9003 64.5223 45.6419 64.584 45.3524C64.6233 45.1213 64.6387 44.8867 64.63 44.6525Z" fill="#93BF3E"/>
<path d="M28.445 71.496C28.3807 71.3542 28.3585 71.197 28.381 71.043C28.381 59.7567 28.3773 48.4705 28.37 37.1842C28.3711 37.0355 28.4081 36.8892 28.4777 36.7578C28.5473 36.6264 28.6476 36.5137 28.77 36.4292C31.3033 34.1694 33.8347 31.9086 36.364 29.6469L51.081 16.4911C51.2021 16.3601 51.3475 16.2538 51.509 16.1781V16.69C51.509 23.8534 51.511 31.0171 51.515 38.1811C51.5195 38.3289 51.4946 38.4762 51.4417 38.6144C51.3888 38.7526 51.309 38.8789 51.207 38.986C47.221 43.5189 43.24 48.0575 39.264 52.6017C39.17 52.7087 39.074 52.8127 38.987 52.9107C38.831 52.8567 38.887 52.7437 38.887 52.6617C38.887 49.494 38.887 46.3263 38.876 43.1626C38.8795 43.0371 38.9086 42.9137 38.9616 42.7998C39.0146 42.686 39.0902 42.5842 39.184 42.5007C40.901 40.6178 42.613 38.729 44.337 36.8522C44.4317 36.7592 44.5062 36.6475 44.5556 36.5243C44.605 36.4011 44.6283 36.2689 44.624 36.1363C44.608 35.0244 44.618 33.9125 44.618 32.7956C44.435 32.7786 44.377 32.9136 44.296 32.9955C41.784 35.5753 39.2723 38.1557 36.761 40.7368C36.6686 40.832 36.5976 40.9458 36.5527 41.0707C36.5079 41.1955 36.4902 41.3285 36.501 41.4608C36.5057 48.0682 36.509 54.6745 36.511 61.2799C36.5242 61.5955 36.417 61.9044 36.211 62.1439C33.719 65.1476 31.2327 68.156 28.752 71.169C28.665 71.269 28.569 71.369 28.452 71.5" fill="black"/>
<path d="M25.1989 71.477L24.7383 70.9776C24.3746 70.5838 24.0113 70.1902 23.65 69.7951C21.7793 67.75 19.9096 65.7042 18.041 63.6577C17.9529 63.5616 17.8652 63.4651 17.7777 63.3685L17.5205 63.0837L17.519 63.0823C17.202 62.7307 16.885 62.3791 16.558 62.0359C16.472 61.9543 16.4057 61.8541 16.3644 61.743C16.323 61.632 16.3075 61.5129 16.3189 61.3949C16.3296 61.2796 16.326 61.1625 16.3225 61.0454L16.3221 61.0344C16.3205 60.9795 16.3189 60.9246 16.3189 60.87C16.3189 50.2383 16.3153 39.6059 16.308 28.9729C16.2977 28.7878 16.3368 28.6033 16.4212 28.4383C16.5058 28.2733 16.6328 28.1338 16.789 28.034C22.7783 23.5344 28.7627 19.0275 34.742 14.5133C35.1224 14.2551 35.4828 13.9687 35.82 13.6563L20.537 3.75725C20.7018 3.65975 20.8341 3.5797 20.9571 3.50673C21.0133 3.47343 21.0675 3.44161 21.122 3.41028L21.8636 2.98269C23.234 2.19286 24.6045 1.40296 25.9599 0.596537C26.0473 0.532639 26.1529 0.498775 26.2612 0.500034C26.3694 0.5013 26.4742 0.537613 26.56 0.60354C32.76 4.1812 38.9626 7.75487 45.1679 11.3246C46.7434 12.2318 48.3177 13.14 49.891 14.0493C50.0353 14.1061 50.1588 14.2055 50.245 14.3343C49.8756 14.6552 49.5073 14.9761 49.1388 15.2968C48.8838 15.5187 48.6286 15.7405 48.373 15.9621L32.18 29.9778C29.9873 31.8756 27.7943 33.7725 25.601 35.6683C25.5024 35.7346 25.4236 35.8263 25.3728 35.9336C25.3219 36.0409 25.3009 36.16 25.312 36.2782C25.3219 36.4691 25.3219 36.6603 25.312 36.8512V71.457L25.195 71.482L25.1989 71.477Z" fill="#93BF3E"/>
<path d="M17.982 13.0224L11.8821 8.6228C11.9126 8.47988 12.0121 8.43754 12.1039 8.39845L12.1325 8.38609C12.1451 8.38056 12.1573 8.37489 12.169 8.36882C12.8608 7.97629 13.5532 7.585 14.2456 7.19375L14.2558 7.18796C15.6146 6.42003 16.9732 5.65218 18.327 4.87514C18.4342 4.79829 18.5642 4.75983 18.6959 4.76601C18.8277 4.77218 18.9535 4.8226 19.0531 4.90914C23.4104 7.8562 27.773 10.7966 32.1411 13.7303C32.206 13.7753 32.274 13.8183 32.341 13.8653C32.468 13.9573 32.441 14.0453 32.3301 14.1293C32.2817 14.1634 32.2341 14.1986 32.1866 14.2338C32.1574 14.2554 32.1283 14.277 32.099 14.2983C26.3657 18.4979 20.628 22.6975 14.8861 26.8971C14.7416 26.9878 14.6242 27.1159 14.5466 27.2678C14.469 27.4197 14.4339 27.5898 14.445 27.76C14.457 38.1857 14.4603 48.6114 14.4551 59.0371V59.7441C14.3174 59.7945 14.2623 59.7181 14.212 59.6481L14.2109 59.6467C14.1987 59.6298 14.1869 59.6133 14.174 59.5991C12.1074 57.304 10.0407 55.0072 7.97397 52.7087C7.91709 52.6455 7.86045 52.5818 7.80405 52.518L7.7175 52.42C7.52854 52.2057 7.33957 51.9915 7.14109 51.7868C7.07261 51.721 7.01999 51.6406 6.98716 51.5516C6.9542 51.4626 6.94187 51.3673 6.95102 51.2729C6.95701 51.1888 6.95505 51.1035 6.95298 51.0183C6.952 50.9757 6.95102 50.9332 6.95102 50.8909V21.2856C6.95102 20.9223 6.95102 20.7431 7.02585 20.6041C7.09873 20.4688 7.24228 20.3717 7.52622 20.18L7.52805 20.1787L17.7051 13.2864C17.8228 13.23 17.9205 13.1375 17.982 13.0224Z" fill="#93BF3E"/>
<path d="M12.86 14.8492L15.0429 13.3754H15.046C14.9991 13.3353 14.959 13.3004 14.9231 13.2693C14.8489 13.2048 14.7929 13.1562 14.733 13.1104C14.3421 12.8135 13.9507 12.5172 13.5592 12.2209C12.4767 11.4014 11.394 10.5817 10.321 9.74969C10.2147 9.64836 10.0758 9.58825 9.92905 9.58019C9.78244 9.57213 9.63779 9.61662 9.52097 9.7057C6.4863 11.3675 3.44504 13.0171 0.396946 14.6542C0.267796 14.7093 0.159886 14.8044 0.0890849 14.9257C0.0182841 15.0469 -0.011501 15.1877 0.00400189 15.3272C0.0105937 24.687 0.0105937 34.0458 0.00400189 43.4036C-0.00161335 43.5444 0.0221904 43.6849 0.0738261 43.8161C0.125462 43.9473 0.203831 44.0663 0.303929 44.1655C1.39707 45.3245 2.48166 46.4929 3.56528 47.6601C3.97654 48.1031 4.38767 48.546 4.79905 48.9881C4.99033 49.1932 5.18454 49.3959 5.379 49.5989C5.46604 49.6898 5.55307 49.7808 5.63999 49.872L5.72702 49.843V49.292C5.73227 39.5836 5.72898 29.8745 5.71701 20.1647C5.70542 20.003 5.74033 19.8413 5.81748 19.6986C5.89475 19.556 6.0112 19.4385 6.15293 19.3598C7.83506 18.239 9.51047 17.1086 11.1863 15.978C11.744 15.6016 12.3019 15.2253 12.86 14.8492Z" fill="#93BF3E"/>
</svg>
