<svg width="32" height="32" viewBox="0 0 32 32" fill="none" xmlns="http://www.w3.org/2000/svg">
<path fill-rule="evenodd" clip-rule="evenodd" d="M12.9735 18.0265C10.8476 15.9005 10.0004 13.4405 10.0004 13.4405L12.2052 11.2357C12.586 10.8549 12.7009 10.2816 12.4965 9.78185L10.0445 3.82755C9.75986 3.13805 8.96747 2.81468 8.28197 3.10865L3.81224 5.02483C3.26705 5.25733 2.93566 5.81989 3.01049 6.40784C3.33119 8.91597 4.66075 15.66 10.0004 20.9996C15.34 26.3392 22.084 27.6688 24.5922 27.9895C25.1801 28.0643 25.7427 27.7329 25.9752 27.1878L27.8913 22.718C28.1853 22.0325 27.862 21.2401 27.1724 20.9555L21.2181 18.5035C20.7184 18.2991 20.1451 18.4126 19.7643 18.7948L17.5595 20.9996C17.5595 20.9996 15.0995 20.1524 12.9735 18.0265Z" stroke="white" stroke-width="2"/>
</svg>
